<?xml version="1.0" standalone="no"?>
<!DOCTYPE svg PUBLIC "-//W3C//DTD SVG 20010904//EN"
 "http://www.w3.org/TR/2001/REC-SVG-20010904/DTD/svg10.dtd">
<svg version="1.0" xmlns="http://www.w3.org/2000/svg"
 width="585.000000pt" height="585.000000pt" viewBox="0 0 585.000000 585.000000"
 preserveAspectRatio="xMidYMid meet">
<metadata>
Created by potrace 1.11, written by Peter Selinger 2001-2013
</metadata>
<g transform="translate(0.000000,585.000000) scale(0.100000,-0.100000)"
fill="#000000" stroke="none">
<path d="M3245 3920 c-48 -11 -98 -40 -133 -79 -44 -47 -102 -173 -117 -252
-3 -13 -9 -46 -15 -74 -20 -100 -32 -232 -34 -388 l-1 -110 -33 -27 c-74 -62
-245 -89 -319 -51 -48 24 -84 63 -114 121 -30 59 -33 187 -6 238 19 36 64 59
80 43 18 -18 15 -105 -5 -165 -17 -49 -18 -60 -7 -68 24 -16 123 -2 161 23 45
29 59 52 63 100 4 52 -27 98 -88 128 -41 20 -64 24 -146 25 -86 0 -103 -2
-153 -27 -68 -33 -129 -99 -148 -159 -16 -52 -21 -127 -9 -149 16 -32 -92
-109 -154 -109 -52 0 -95 71 -151 252 -51 163 -74 179 -115 84 -65 -147 -83
-185 -106 -213 -27 -35 -58 -42 -86 -20 -44 34 -101 212 -93 289 4 38 1 51
-16 68 -20 20 -21 20 -51 3 -64 -37 -107 -156 -107 -293 0 -99 20 -179 60
-240 36 -55 57 -70 107 -76 57 -7 97 26 147 121 24 44 47 81 52 83 5 1 17 -15
27 -37 20 -46 76 -106 120 -128 42 -23 131 -20 185 5 25 11 80 50 122 86 67
58 77 64 83 47 11 -35 86 -102 139 -126 134 -59 342 -22 510 91 27 18 51 32
52 31 1 -1 5 -47 8 -102 10 -147 16 -187 32 -212 21 -33 65 -30 108 7 36 32
86 120 86 152 0 55 80 241 113 262 21 14 49 -12 65 -61 44 -130 92 -183 173
-191 65 -6 119 15 215 84 41 30 77 54 80 54 2 0 4 -7 4 -15 0 -9 9 -34 21 -56
22 -44 65 -69 119 -69 46 0 121 42 179 101 28 28 53 50 54 48 79 -124 118
-153 208 -153 78 0 145 37 254 139 50 47 93 85 98 85 4 0 7 -13 7 -29 0 -71
51 -154 109 -179 45 -19 143 -18 197 1 58 21 169 97 239 162 76 72 140 105
213 110 135 9 249 -84 267 -217 8 -57 -16 -161 -57 -247 -47 -100 -158 -205
-280 -264 -126 -61 -155 -70 -349 -112 -66 -14 -145 -20 -279 -20 -157 0 -217
5 -391 30 -53 8 -118 17 -145 20 -27 4 -96 15 -154 25 -58 10 -121 21 -140 24
-19 3 -46 8 -60 11 -14 3 -50 9 -80 15 -60 11 -92 17 -130 25 -14 2 -41 7 -60
10 -19 4 -53 10 -75 15 -53 12 -343 59 -403 65 -26 3 -63 7 -82 10 -321 42
-667 50 -890 20 -149 -20 -250 -47 -323 -88 -152 -85 -229 -185 -278 -362 -34
-124 -4 -180 39 -74 38 90 116 154 250 203 23 9 42 14 42 11 0 -2 11 0 26 5
14 6 42 12 62 15 20 3 53 7 72 10 114 16 188 20 395 20 194 0 394 -9 455 -20
8 -1 49 -6 90 -9 77 -7 135 -14 180 -21 14 -2 52 -7 85 -10 33 -3 71 -8 85
-10 14 -2 46 -6 72 -9 26 -3 63 -8 82 -11 71 -10 102 -14 151 -20 28 -3 59 -8
70 -10 11 -2 52 -7 90 -10 39 -4 77 -8 85 -10 8 -2 50 -7 93 -10 43 -4 87 -8
98 -10 45 -9 276 -19 444 -19 262 0 395 14 586 64 336 87 585 286 659 528 30
95 28 240 -4 307 -48 103 -130 158 -245 161 -110 4 -202 -35 -305 -130 -91
-82 -190 -73 -263 26 -35 48 -66 162 -65 238 1 69 -4 86 -28 91 -46 10 -120
-88 -147 -195 -16 -64 -24 -77 -84 -138 -130 -134 -180 -120 -274 77 -30 62
-58 116 -64 119 -19 12 -38 -6 -91 -85 -30 -45 -66 -92 -79 -105 -29 -30 -79
-32 -112 -5 -48 39 -22 180 45 247 53 54 122 71 199 49 25 -6 28 -5 25 10 -5
26 -68 44 -142 41 -168 -8 -317 -143 -365 -331 -18 -68 -119 -114 -166 -75
-28 23 -54 86 -75 177 -54 235 -81 274 -158 227 -54 -32 -159 -188 -219 -324
l-33 -75 5 60 c2 33 5 101 6 150 2 82 6 98 42 175 97 211 147 350 152 423 6
87 -63 154 -140 137z m96 -100 c1 -11 2 -26 3 -32 3 -23 -31 -141 -62 -218
-42 -105 -81 -190 -86 -190 -6 0 5 170 19 283 8 69 28 127 56 160 26 31 34 35
50 27 10 -6 20 -20 20 -30z"/>
<path d="M1160 3887 c-19 -11 -60 -40 -90 -63 l-55 -42 -49 44 c-145 132 -377
82 -585 -126 -223 -222 -328 -518 -248 -694 30 -65 77 -98 182 -127 73 -21
103 -23 345 -24 294 -1 322 -6 328 -58 10 -89 -136 -241 -323 -335 -154 -77
-248 -75 -323 7 -56 63 -90 214 -70 318 4 24 5 50 2 58 -17 43 -165 -99 -221
-212 -69 -140 -35 -243 102 -304 69 -31 211 -35 312 -9 306 80 671 359 753
577 26 71 28 109 5 157 -14 28 -31 44 -64 60 -50 23 -128 25 -491 12 -216 -8
-289 13 -332 96 -33 64 -30 161 9 253 79 186 290 356 442 355 45 0 112 -31
147 -65 l27 -27 -63 -61 c-75 -74 -133 -150 -149 -196 -14 -43 1 -70 61 -105
55 -31 178 -68 215 -64 45 5 67 62 66 173 0 49 -3 102 -7 117 -4 20 1 43 20
80 29 58 92 160 104 168 8 6 30 46 30 54 0 13 -47 3 -80 -17z"/>
<path d="M4845 3726 c-51 -22 -83 -69 -91 -133 -5 -45 -3 -63 11 -90 34 -63
134 -69 194 -12 39 37 51 67 51 125 0 93 -82 147 -165 110z"/>
</g>
</svg>
